# xmcd CD database file
#
# Track frame offsets:
#	150
#	13702
#	35606
#	52240
#	68945
#	84848
#	105036
#	116707
#	133347
#	145569
#	168717
#	182459
#	208272
#	227200
#	249239
#	267877
#	281515
#	298625
#
# Disc length: 4211 seconds
#
# Revision: 0
# Processed by: cddbd v1.4PL0 Copyright (c) Steve Scherf et al.
# Submitted via: CDex 1.40Beta9
#
DISCID=07107112
DTITLE=svein "Oagee" nordheim - Det æ´kke køntry alt som lukter hest
DYEAR=1900
DGENRE=Country
TTITLE0=Summertime Blues
TTITLE1=When I Fall
TTITLE2=When Ever You Come Around
TTITLE3=Road To Hell
TTITLE4=Til The Morning Comes
TTITLE5=Job Description
TTITLE6=Green River
TTITLE7=From A Distance
TTITLE8=Liza Jane
TTITLE9=The Dance
TTITLE10=Third Rock From The Sun
TTITLE11=Engler I Sneen
TTITLE12=Lets Dance
TTITLE13=Fra Mitt Hjerte
TTITLE14=Tusen Bitar
TTITLE15=One More Last Chanse
TTITLE16=If Tomorrow Never Comes
TTITLE17=Det æ´kke køntry alt som lukter hest
EXTD=ID3G: 2
EXTT0=
EXTT1=
EXTT2=
EXTT3=
EXTT4=
EXTT5=
EXTT6=
EXTT7=
EXTT8=
EXTT9=
EXTT10=
EXTT11=
EXTT12=
EXTT13=
EXTT14=
EXTT15=
EXTT16=
EXTT17=
PLAYORDER=
